/* XPM */
static char *result[] = {
/* columns rows colors chars-per-pixel */
"64 64 7 1 ",
"  c black",
". c gray10",
"X c #313439",
"o c #6B2817",
"O c #424952",
"+ c #B2807D",
"@ c white",
/* pixels */
"XOOOOOOOOOOOOOOOOOOOOOOOOOOOOOOOOOOOOOOOOOOOOOOOOOOOOOOOOOOOOOOO",
"OOOOOOOOOOOOOOOOOOOOOOOOOOOOOOOOOOOOOOOOOOOOOOOOOOOOOOOOOXOOOOOO",
"OOOOOOOOXOOOOOOOOOOOOOOXOO             OOOOOXOOOOOOOOOOOOOOOOOOO",
"OOOOOOOOOOOOOOOOOOOOOOOOOO ........... OOOOOOOOOOOOOOOOOOOOOOXOO",
"OOOOOOOOOOOOOOOOOOOOOOOOOO ........... OOOOOOOOOOOOOOOOOOOOOOOOO",
"OOOOXOOOOOOOOOOOOOOOOOOOOO ........... OOOOOOOOOOOOOOOOOOOOOOOOO",
"OOOOOOOOOOOOOOOXOOOOOXOOOO ........... OOOOOOOOOOOOOOOXOOOOOOOOO",
"OOOOOOOOOOOOOOXOOOOOOOOOOO ........... OOOOOOOOOOOOOOOOOOOOOOOOO",
"OOOOOOOOOOOOOOOOOOOOOOOOOO             OOOOOXOOOOXOOOOOOOOOOOOOO",
"OOOOOOOOOXOOOOOOOOOOOOOOOOO +++++++++ OOOOOOOOOOOOOOOOOOOOOOOOXO",
"OOOOOOOOOOOOOOOXOOOOOOOOOOO +++++++++ OOOOOOOOOOOOOOOOOOOOOOOOOO",
"OOOOOOOOOOOOOOOOOOOOOOOOOO ++++++++++  OOOOOOOOOOOOOOOOOOOOOOOOO",
"OOXOOOOOOOOOOOOOOOOOOOOOOO +++++++++++ OOOOOOOOOOOOOOOOOOOOOOOOO",
"OOOXOOOOOOXOOOOOOOOOOOOOOO +++++++++++ OOOOOOOOOOOOOOOOOOOOOOOOO",
"OOOOOOOOOOOOOOOOOOOOOOOOO ++++++++++++ XOOOOOOXOOOOXOOOOOOOOOOOO",
"OOXOOOOOOOOOOOOOOOOOOOOOO ++++++++++++  OOOOOOOOOOXOOOOOOOOOOOOO",
"OOOOOOOOOOOOOOOOOOOOOOOOO +++++++++++++ OOOOOOOOOOOOOOOOOOXOOOOO",
"OOXOOOOOOOOOOOOOXOOOOOOO  +++++++++++++ OOOOOOOOOOOOOOOOOOOOOOOO",
"OOOOOOOOOOOXOOOOOOOOOOOO ++++++++++++++  OOOOOOOOOOOOOOOOOOOOOOO",
"OOOOOOOOOOOOOOOOOOOOOOXO +++++++++++++++ OOOOOOOOOOOOOOOOOOOOOOO",
"OOOOOOOOOOOOOOOOOOOOOOO ++++++++++++++++ OXOOOOOOOOOOOOOOOOOOXOO",
"OOOOOOOOXOOOOOOOOOOOOOO ++++++++++++++++ OOOOOOOOOOOOOOOOOOOOOOO",
"OOOOOOOOOOOOOOOOOOOOOOO +++++++++++++++++ OOOOOOOOXOOOOOOOOOOOOO",
"OOOOOOOOOOOOOOOOOOOOOOO +++++++++++++++++ OOOOOOOOOOOOOOOOOOOOOO",
"OOXOOOOOOOOOOOOOOOOOOOO +++++++++++++++++ OOOOOOOOOOOOOOOOOOOOOO",
"OOOOOOOOOOXOOOOOOOOOXOO +++++++++++++++++ OOOOOOOOOOOOOOOOOOOOOO",
"OOOOOXOOOOXOOOOOOOOXOO  +++++++++++++++++ OOOOOOOOOOOOOOOOOOOOOO",
"OOOOOOOOOOOOOOOOOOOOOO +++++++++++++++++++ OOOOOOOOOOXXOOOOOOOOO",
"OOOOOOOOOOOOOOOOOOOOOO +++++++++++++++++++ OOOXOOOOOOOOOOOOOOOOO",
"OOOOOOOOOOOOOOOOOOOOOO +++++++++++++++++++ OOOOOOOOOOOOOOOOOOOOO",
"OOOOOOOOOOOOOXOOOOOOOO      ++++++++       OOOOOOOOOOOOOOOOOOOOO",
"OOOOOOOOOOOOOOOOOOOOOO @@@@          @@@@@ OOOOOOOOOOOOOOOOOOOOO",
"XOOOOOOOOOOOOOOOOOOOOO @@@@@@@@@@@@@@@@@@@ OOOOOOOOOOOOOOOOOOOOO",
"OOOOOOOOOOOOOOOOOOOOOO @@    @     @ @@@ @ OOOOOOOOOOOOOOXOOOOOO",
"OOOOOOOOXOOOOOOOOOOOOO @@ @@ @ @@@ @ @@@ @ OXOOOOOOOOOOOOOOOOOOO",
"OOOOOOOOOOOOOOOOOOOOOO @@ @@@@ @@@ @  @  @ OOOOOOOOOOOOOOOOOOXOO",
"OOOOOOOOOOOOOOOOOOOOOO @@    @ @@@ @@   @@ OOOOOOOOOOOOOOOOOOOOO",
"OOOOXOOOOOOOOOOOOOOOOO @@@@@ @ @@@ @@@ @@@ OOOOOOOOOOOOOOOOOOOOO",
"OOOOOOOOOOOOOOOXOOOOOX @@ @@ @ @@@ @@@ @@@ OOOOOOOOOOOXOOOOOOOOO",
"OOOOOOOOOOOOOOXOOOOOOO @@    @     @@@ @@@ OOOOOOOOOOOOOOOOOOOOO",
"OOOOOOOOOOOOOOOOOOOOOO @@@@@@@@@@@@@@@@@@@ OXOOOOXOOOOOOOOOOOOOO",
"OOOOOOOOOXOOOOOOOOOOOO @@@@@@@@@@@@@@@@@@@ OOOOOOOOOOOOOOOOOOOXO",
"OOOOOOOOOOOOOOOXOOOOOO @@               @@ OOOOOOOOOOOOOOOOOOOOX",
"OOOOOOOOOOOOOOOOOOOOOO @@ @@@@@@@@@@@@@ @@ OOOOOOOOOOOOOOOOOOOOO",
"OOXOOOOOOOOOOOOOOOOOOO @@ @           @ @@ OOOOOOOOOOOOOOOOOOOOO",
"OOOXOOOOOOXOOOOOOOOOOO @@ @@@@@@@@@@@@@ @@ OOOOOOOOOOOOOOOOOOOOO",
"OOOOOOOOOOOOOOOOOOOOOO @@               @@ OOOXOOOOXOOOOOOOOOOOO",
"OOXOOOOOOOOOOOOOOOOOOO @@@@@@@@@@@@@@@@@@@ OOOOOOOXOOOOOOOOOOOOO",
"OOOOOOOOOOOOOOOOOOOOOO @@@   @@@@@@@@@@@@@ OOOOOOOOOOOOOOOXOOOOO",
"OOXOOOOOOOOOOOOOXOOOOO @@@   @@        @@@ OOOOOOOOOOOOOOOOOOOOO",
"OOOOOOOOOOOXOOOOOOOOOO @@@   @@@@@@@@@@@@@ OOOOOOOOOOOOOOOOOOOOO",
"OOOOOOOOOOOOOOOOOOOOOO @@@  @@@@@@@  @@@@@ OOOOOOOOOOOOOOOOOOOOO",
"OOOOOOOOOOOOOOOOOOOOOO @@@@@@       @@@@@@ OOOOOOOOOOOOOOOOOOXOO",
"OOOOOOOOXOOOOOOOOOOOOO @@@@@@@@@@@@@@@     OOOOOOOOOOOOOOOOOOOOO",
"OOOOOOOOOOOOOOOOOOOOOO @@@@@@@@@@@@@  oooo OOOOOOOXOOOOOOOOOOOOO",
"OOOOOOOOOOOOOOOOOOOOOO @@@@@@@@@@@@  ooooo OOOOOOOOOOOOOOOOOOOOO",
"OOXOOOOOOOOOOOOOOOOOOO @@@@@@@@@@@ oooo  o OOOOOOOOOOOOOOOOOOOOO",
"OOOOOOOOOOXOOOOOOOOOXO @@@@@@@@@@@@      o OOOOOOOOOOOOOOOOOOOOO",
"OOOOOXOOOOXOOOOOOOOXOO @@@@@@@@@@@@@@ @@ o OOOOOOOOOOOOOOOOOOOOO",
"OOOOOOOOOOOOOOOOOOOOOO @@@@@@@@@@@@@@@@@   OOOOOOOOOOXXOOOOOOOOO",
"OOOOOOOOOOOOOOOOOOOOOO  @@@@@@@@@@@@@@@@   OOOXOOOOOOOOOOOOOOOOO",
"OOOOOOOOOOOOOOOOOOOOOOO   @@@@@@@@@@@    OOOOOOOOOOOOOOOOOOOOOOO",
"OOOOOOOOOOOOOXOOOOOOOOOOO             OOOOOOOOOOOOOOOOOOOOOOOOOO",
"OOOOOOOOOOOOOOOOOOOOOOOOOOOOOOOOOOOOOOOOOOOOOOOOOOOOOOOOOOOOOOOO"
};
