/* XPM */
static char *result[] = {
/* columns rows colors chars-per-pixel */
"64 64 2 1 ",
"  c #B24A4B",
". c #DDE1D3",
/* pixels */
"................................................................",
"          ..            ..            ..            ..          ",
"          ..            ..            ..            ..          ",
"          ..            ..            ..            ..          ",
"          ..            ..            ..            ..          ",
"          ..            ..            ..            ..          ",
"................................................................",
"................................................................",
"................................................................",
"  ..            ..            ..            ..            ..    ",
"  ..            ..            ..            ..            ..    ",
"  ..            ..            ..            ..            ..    ",
"  ..            ..            ..            ..            ..    ",
"  ..            ..            ..            ..            ..    ",
"................................................................",
"................................................................",
"................................................................",
"        ..            ..            ..            ..            ",
"        ..            ..            ..            ..            ",
"        ..            ..            ..            ..            ",
"        ..            ..            ..            ..            ",
"        ..            ..            ..            ..            ",
"................................................................",
"................................................................",
"................................................................",
"..            ..            ..            ..            ..      ",
"..            ..            ..            ..            ..      ",
"..            ..            ..            ..            ..      ",
"..            ..            ..            ..            ..      ",
"..            ..            ..            ..            ..      ",
"................................................................",
"................................................................",
"................................................................",
"      ..            ..            ..            ..            ..",
"      ..            ..            ..            ..            ..",
"      ..            ..            ..            ..            ..",
"      ..            ..            ..            ..            ..",
"      ..            ..            ..            ..            ..",
"................................................................",
"................................................................",
"................................................................",
"            ..            ..            ..            ..        ",
"            ..            ..            ..            ..        ",
"            ..            ..            ..            ..        ",
"            ..            ..            ..            ..        ",
"            ..            ..            ..            ..        ",
"................................................................",
"................................................................",
"................................................................",
"    ..            ..            ..            ..            ..  ",
"    ..            ..            ..            ..            ..  ",
"    ..            ..            ..            ..            ..  ",
"    ..            ..            ..            ..            ..  ",
"    ..            ..            ..            ..            ..  ",
"................................................................",
"................................................................",
"................................................................",
"          ..            ..            ..            ..          ",
"          ..            ..            ..            ..          ",
"          ..            ..            ..            ..          ",
"          ..            ..            ..            ..          ",
"          ..            ..            ..            ..          ",
"................................................................",
"................................................................"
};
