/* XPM */
static char *result[] = {
/* columns rows colors chars-per-pixel */
"64 64 5 1 ",
"  c black",
". c #313439",
"X c #424952",
"o c #FF0003",
"O c white",
/* pixels */
".XXXXXXXXXXXXXXXXXXXXXXX       XXXXXXXXXXXXXXXXXXXXXXXXXXXXXXXXX",
"XXXXXXXXXXXXXXXXXXXXX    OOOOOO   XXXXXXXXXXXXXXXXXXXXXXX.XXXXXX",
"XXXXXXXX.XXXXXXXXXX   OOOOOOOOOOOO  XXXXXXXX.XXXXXXXXXXXXXXXXXXX",
"XXXXXXXXXXXXXXXXXX  OOOOOOOOOOOOOOO  XXXXXXXXXXXXXXXXXXXXXXXX.XX",
"XXXXXXXXXXXXXXXXX  OOOOOOOOOOOOOOOOO  XXXXXXXXXXXXXXXXXXXXXXXXXX",
"XXXX.XXXXXXXXXXX  OOOOOOOOOOOOOOOOOOOO  XXXXXXXXXXXXXXXXXXXXXXXX",
"XXXXXXXXXXXXXXX. OOOOOOOOOOOOOOOOOOOOOO  XXXXXXXXXXXXX.XXXXXXXXX",
"XXXXXXXXXXXXXX.X OOOOOOOOOOOOOOOOOOOOOOO  XXXXXXXXXXXXXXXXXXXXXX",
"XXXXXXXXXXXXXXX  OOOOOOOOOOOOOOOOOOOOOO O  X.XXXX.XXXXXXXXXXXXXX",
"XXXXXXXXX.XXXXX OOOOOOOOOOOOOOOOOOOOOO   O XXXXXXXXXXXXXXXXXXX.X",
"XXXXXXXXXXXXXXX OOOOOOOOOOOOOOO             XXXXXXXXXXXXXXXXXXXX",
"XXXXXXXXXXXXXXX OOOOOOOOOOOOO         OO     XXXXXXXXXXXXXXXXXXX",
"XX.XXXXXXXXXXX  OO      OOOO   O       O      XXXXXXXXXXXXXXXXXX",
"XXX.XXXXXX.XXX O       O OOO OO    o    O     XXXXXXXXXXXXXXXXXX",
"XXXXXXXXXXXXXX                O         O      XXXX.XXXXXXXXXXXX",
"XX.XXXXXXXXX   OO    o    OOO OO      OOO      XXX.XXXXXXXXXXXXX",
"XXXXXXXXXXXX X OO         OOO  OO              XXXXXXXXXXX.XXXXX",
"XX.XXXXXXXXX X OOO        OOOO    OOOOO         XXXXXXXXXXXXXXXX",
"XXXXXXXXXXX.X  OOOOO     OOOOOO     OOOO        XXXXXXXXXXXXXXXX",
"XXXXXXXXXXXXX  O     OO OOOOOOO     OOOO         XXXXXXXXXXXXXXX",
"XXXXXXXXXXXXXX  OOOOOO OOOOOOOOO     OOOO        XXXXXXXXXXXX.XX",
"XXXXXXXX.XXXXX OOOOOO  OOOOOOOOO      OOOO       XXXXXXXXXXXXXXX",
"XXXXXXXXXXXXXX OOOOOO OOOOOOOOOOO      OOO        .XXXXXXXXXXXXX",
"XXXXXXXXXXXXXX OOOOOO OOOOOOO   O      OOOO       XXXXXXXXXXXXXX",
"XX.XXXXXXXXXX  OOOOOO O  OOO   O      OOOOO       XXXXXXXXXXXXXX",
"XXXXXXXXXX.XX OOOOOOO  OOOOOOOOO      OOOOO        XXXXXXXXXXXXX",
"XXXXX.XXXX.XX OOOOOOOO  OOOOOOO OO   O OOOOO       XXXXXXXXXXXXX",
"XXXXXXXXXXXXX OOOOOOOOOOOOOOOOOOOOOOOOO OOOO       XX..XXXXXXXXX",
"XXXXXXXXXXXXX OOOOOOO OOOOOOOOOOOOOOOOO  OOO        XXXXXXXXXXXX",
"XXXXXXXXXXXXX OOOOOO  OOOOOOOOOOOOOOOOOO  OO        XXXXXXXXXXXX",
"XXXXXXXXXXXXX OOOOOO OOOOOOOOOOOOOOOOOOOO OO        XXXXXXXXXXXX",
"XXXXXXXXXXXXX OOOOO OOOOOOOOOOOOOOOOOOOOO  OO       XXXXXXXXXXXX",
".XXXXXXXXXXXX OOOOO OOOOOOOOOOOOOOOOOOOOOO OO        XXXXXXXXXXX",
"XXXXXXXXXXXXXX OOOO OOOOOOOOOOOOOOOOOOOOOOO O        XXXX.XXXXXX",
"XXXXXXXX.XXXXX OOOO OOOOOOOOOOOOOOOOOOOOOOO O        XXXXXXXXXXX",
"XXXXXXXXXXXXXX OOOO OOOOOOOOOOOOOOOOOOOOOOO          XXXXXXXX.XX",
"XXXXXXXXXXXXXX OOOO OOOOOOOOOOOOOOOOOOOOOOOO         XXXXXXXXXXX",
"XXXX.XXXXXXXXX OOOO OOOOOOOOOOOOOOOOOOOOO OO         XXXXXXXXXXX",
"XXXXXXXXXXXXXX  OOO OOOOOOOOOOOOOOOOOOO   OO         X.XXXXXXXXX",
"XXXXXXXXXXXXXX   OO OO  OOOOOOOOOOOOO   OOO          XXXXXXXXXXX",
"XXXXXXXXXXXXXXX  OO OOO       OOO      OOO           XXXXXXXXXXX",
"XXXXXXXXX.XXXXX  OO OOOOO  OO    OO   OO             XXXXXXXXX.X",
"XXXXXXXXXXXXXXX  OO  OOOOO          O                XXXXXXXXXX.",
"XXXXXXXXXXXXXXX   OOOOOOO OOO OO O                   XXXXXXXXXXX",
"XX.XXXXXXXXXXXXX  OOOOOOOOOOOO                      XXXXXXXXXXXX",
"XXX.XXXXXX.XXXX     OOOOOOOOOOOO                    XXXXXXXXXXXX",
"XXXXXXXXXXXXXXXXX  OOOOOOOOOOOOOOOO     OOO         XXXXXXXXXXXX",
"XX.XXXXXXXXXXXXXXX  OOOOOOOOOOOOOOOOOOOOOOOO        XXXXXXXXXXXX",
"XXXXXXXXXXXXXXXXX X  OOOOOOOOOOOOOOOOOOOOOOO       XXXXXXX.XXXXX",
"XX.XXXXXXXXXXXXX.XX   OOOOOOOOOOOOOOOOOOOOO        XXXXXXXXXXXXX",
"XXXXXXXXXXX.XXXXXX   OOOOOOOOOOOOOOOOOOOOO         XXXXXXXXXXXXX",
"XXXXXXXXXXXXXXXXXXXX  OOOOOOOOOOOOOOOOOOO         XXXXXXXXXXXXXX",
"XXXXXXXXXXXXXXXXXXX   OOO  O OOOOOOOOOOO          XXXXXXXXXXX.XX",
"XXXXXXXX.XXXXXXXXXXXX    O  OOOOOOOOOOO          XXXXXXXXXXXXXXX",
"XXXXXXXXXXXXXXXXXXXXXX OOO    OOOOOOO            X.XXXXXXXXXXXXX",
"XXXXXXXXXXXXXXXXXXXX      O    O OO            X XXXXXXXXXXXXXXX",
"XX.XXXXXXXXXXXXXXXXXXXX  OO  O                  XXXXXXXXXXXXXXXX",
"XXXXXXXXXX.XXXXXXXXX.X   OOO                  XXXXXXXXXXXXXXXXXX",
"XXXXX.XXXX.XXXXXXXX.XXXXX O OO OO O         X XXXXXXXXXXXXXXXXXX",
"XXXXXXXXXXXXXXXXXXXXXXX    O  OOOOOOO     X XXXXXXXXX..XXXXXXXXX",
"XXXXXXXXXXXXXXXXXXXXXXXXXXX   O OOO         XX.XXXXXXXXXXXXXXXXX",
"XXXXXXXXXXXXXXXXXXXXXXXXXXX              XXXXXXXXXXXXXXXXXXXXXXX",
"XXXXXXXXXXXXX.XXXXXXXXXXXX   X XX  .   XX  XXXXXXXXXXXXXXXXXXXXX",
"XXXXXXXXXXXXXXXXXXXXXXXXXXXXXX XXX XXXXXXXXXXXXXXXXXXXXXXXXXXXXX"
};
