/* XPM */
static char *result[] = {
/* columns rows colors chars-per-pixel */
"64 64 4 1 ",
"  c #313439",
". c #424952",
"X c #0C902F",
"o c white",
/* pixels */
" ...............................................................",
"......................................................... ......",
"........ .............. .................... ...................",
"............................. ............................... ..",
"................................................................",
".... ...........................................................",
"............... ..... ........... .................... .........",
".............. .................................................",
"............................................ .... ..............",
"......... .................... ............................... .",
"............... .................. .............................",
"................................... ............................",
".. .............................................................",
"... ...... .....................................................",
".......................... ............ ...... .... ............",
".. ............................................... .............",
".......................................................... .....",
".. ............. ...............................................",
"..XXXXXXXXXXXXXXXXXXXXXXXXXXXXXXXXXXXXXXXXXXXXXXXXXXXXXXXXXXXX..",
"..XXXXXXXXooooooooooooooooXXXXXXXXXXXXXXXXXXXXXXXXXXXXXXXXXXXX..",
"..XXXXXXXXooooooooooooooooXXXXXXXXXXXXXXXXXXXXXXXXXXXXXXXXXXXX..",
"..XXXXXXXXoooooooooXXXooooXXXXXXXXXXXXXXXXXXXXXXXXXXXXXXXXXXXX..",
"..XXXXXXXXooooooooXXXXXoooXXXXXXXXXXXXXXXooooooooXXXXXXXXXXXXX..",
"..XXXXXXXXooooooooXXXXXoooXXXXXXXXXXXXXXXXooooooooXXXXXXXXXXXX..",
"..XXXXXXXXooooooooXXXXXoooXXXXXXXXXXXXXXXXXooooooooXXXXXXXXXXX..",
"..XXXXXXXXoooooooooXXXooooXXXXXXXXXXXXXXXXXXooooooooXXXXXXXXXX..",
"..XXXXXXXXooooXXXXXoooooooXXXXXXXXXXXXXXXXXXXooooooooXXXXXXXXX..",
"..XXXXXXXXoooXXoooXXXXooooXXXXXXXXXXXXXXXXXXXXooooooooXXXXXXXX..",
"..XXXXXXXXooXXooooXXXXooooXXXXXXoooooooooooooooooooooooXXXXXXX..",
"..XXXXXXXXooXoooooXXXXXooooXXXXXooooooooooooooooooooooooXXXXXX..",
"..XXXXXXXXoooooooXXXooXXXXoXXXXXoooooooooooooooooooooooooXXXXX..",
"..XXXXXXXXoooooooXXXoooooooXXXXXooooooooooooooooooooooooooXXXX..",
" .XXXXXXXXooooooXXXXooooooXXXXXXoooooooooooooooooooooooooooXXX..",
"..XXXXXXXXooooooXXXXooooooXXXXXXooooooooooooooooooooooooooXXXX..",
"..XXXXXXXXoooooXXooXXoooooXXXXXXoooooooooooooooooooooooooXXXXX..",
"..XXXXXXXoooooXXooooXoooooXXXXXXooooooooooooooooooooooooXXXXXX..",
"..XXXXXXooXXXXXoooooXXooooXXXXXXoooooooooooooooooooooooXXXXXXX..",
"..XXXXXXoooooooooooooXooooXXXXXXXXXXXXXXXXXXXXooooooooXXXXXXXX..",
"..XXXXXXoooooooooooooXooooXXXXXXXXXXXXXXXXXXXooooooooXXXXXXXXX..",
"..XXXXXXXooooooooooooXooooXXXXXXXXXXXXXXXXXXooooooooXXXXXXXXXX..",
"..XXXXXXXXooooooooooXXooooXXXXXXXXXXXXXXXXXooooooooXXXXXXXXXXX..",
"..XXXXXXXXooooooooooXoooooXXXXXXXXXXXXXXXXooooooooXXXXXXXXXXXX .",
"..XXXXXXXooooooooooXXoooooXXXXXXXXXXXXXXXooooooooXXXXXXXXXXXXX. ",
"..XXXXXXoooooooooooXoooooXXXXXXXXXXXXXXXXXXXXXXXXXXXXXXXXXXXXX..",
"..XXXXXoooooooooooooooooXXXXXXXXXXXXXXXXXXXXXXXXXXXXXXXXXXXXXX..",
"..XXXXXXXXXXXXXXXXXXXXXXXXXXXXXXXXXXXXXXXXXXXXXXXXXXXXXXXXXXXX..",
".......................... ............ ...... .... ............",
".. ............................................... .............",
".......................................................... .....",
".. ............. ...............................................",
"........... ....................................................",
"...................... .........................................",
"............................. ............ .................. ..",
"........ .......................................................",
".....................................  ........... .............",
"................................................................",
".. .............................................................",
".......... ......... ............ ..............................",
"..... .... ........ ...... .....................................",
".....................................................  .........",
".............................................. .................",
"................................................................",
"............. ....................  ............................",
"................................................................"
};
