/* XPM */
static char *result[] = {
/* columns rows colors chars-per-pixel */
"64 64 4 1 ",
"  c black",
". c #313439",
"X c #424952",
"o c white",
/* pixels */
".XXXXXXXXXXXXXXXXXXXXXXXX              XXXXXXXXXXXXXXXXXXXXXXXXX",
"XXXXXXXXXXXXXXXXXXXXXXXX  oooooooooooo   XXXXXXXXXXXXXXXX.XXXXXX",
"XXXXXXXX.XXXXXXXXXXXXX   ooooooooooooooo  XX.XXXXXXXXXXXXXXXXXXX",
"XXXXXXXXXXXXXXXXXXXXX  oooooooooooooooooo  XXXXXXXXXXXXXXXXXX.XX",
"XXXXXXXXXXXXXXXXXXX   oooooooooooooooooooo  XXXXXXXXXXXXXXXXXXXX",
"XXXX.XXXXXXXXXXXXX  oooooo   oooooooooooooo  XXXXXXXXXXXXXXXXXXX",
"XXXXXXXXXXXXXXX.X  oooo    o         ooooooo  XXXXXXXX.XXXXXXXXX",
"XXXXXXXXXXXXXX.XX ooooo oooooooooooo    ooooo  XXXXXXXXXXXXXXXXX",
"XXXXXXXXXXXXXXXX oooooooooo       oooooooooooo XX.XXXXXXXXXXXXXX",
"XXXXXXXXX.XXXXXX ooooooo    ooooo  oooooooooooo XXXXXXXXXXXXXX.X",
"XXXXXXXXXXXXXXX  ooooo  oooooooooo        ooooo XXXXXXXXXXXXXXXX",
"XXXXXXXXXXXXXXX oooooo   oooooooooooooooooooooo XXXXXXXXXXXXXXXX",
"XX.XXXXXXXXXXXX oooo  oo   oooooooooo     ooooo XXXXXXXXXXXXXXXX",
"XXX.XXXXXX.XXXX ooo  ooooo oooooooo  oooo  oooo XXXXXXXXXXXXXXXX",
"XXXXXXXXXXXXXXX ooooooooooo ooooooo oooooo oooo XXX.XXXXXXXXXXXX",
"XX.XXXXXXXXXXXX ooooooooooo ooooooooooooooooooo XX.XXXXXXXXXXXXX",
"XXXXXXXXXXXXXXX               ooooo           o XXXXXXXXXX.XXXXX",
"XX.XXXXXXXXXXXX  ooooo     oo       oo    ooo   XXXXXXXXXXXXXXXX",
"XXXXXXXXXXX.XXX  oooo  ooo    oooo oo ooo  ooo  XXXXXXXXXXXXXXXX",
"XXXXXXXXXXXXXXX  ooo oo  ooo  oooo o oo ooo oo  XXXXXXXXXXXXXXXX",
"XXXXXXXXXXXXXXX  ooo oo   o   oooo o o   oo oo  XXXXXXXXXXXXX.XX",
"XXXXXXXX.XXXXXX  oooo       o oooo o       ooo  XXXXXXXXXXXXXXXX",
"XXXXXXXXXXXXXXX  oooooooooooo oooo oooooooooo   XX.XXXXXXXXXXXXX",
"XXXXXXXXXXXXXXX               oooo            o XXXXXXXXXXXXXXXX",
"XX.XXXXXXXXXXXX ooooooooooooooooooooooooooooooo XXXXXXXXXXXXXXXX",
"XXXXXXXXXX.XXXX ooooooooooooooooooooooooooooooo XXXXXXXXXXXXXXXX",
"XXXXX.XXXX.XXXX ooooooooooo oooooooo oooooooooo  XXXXXXXXXXXXXXX",
"XXXXXXXXXXXXXXX oooooooooo  oooooooo  oooooooooo XXXX..XXXXXXXXX",
"XXXXXXXXXXXXXXX ooooooooo  oooooooooo  ooooooooo XXXXXXXXXXXXXXX",
"XXXXXXXXXXXXXXX ooooooooo oooooooooooo ooooooooo XXXXXXXXXXXXXXX",
"XXXXXXXXXXXXX.X ooooooooo    oooooo    ooooooooo XXXXXXXXXXXXXXX",
"XXXXXXXXXXXXXXX oooooooooooooooooooooooooooooooo XXXXXXXXXXXXXXX",
".XXXXXXXXXXXXXX ooooooooooooo   oooooooooooooooo XXXXXXXXXXXXXXX",
"XXXXXXXXXXXXXX  oooooooo  oo  o    oooo ooooo o  XXXXXXXX.XXXXXX",
"XXXXXXXX.XXXXX oooooooo  oo   o  o    o  ooooo   XXXXXXXXXXXXXXX",
"XXXXXXXXXXXXXX o ooooo  oo  o o  oo o  o  ooooo  XXXXXXXXXXXX.XX",
"XXXXXXXXXXXXXX  ooooo ooo   o o  oo o  oo  oooo  XXXXXXXXXXXXXXX",
"XXXX.XXXXXXXX   o  o ooo  o o oo o  o   oo o o    XXXXXXXXXXXXXX",
"XXXXXXXXXXXXX X  ooo  o          o  o   oo o oo X XXXX.XXXXXXXXX",
"XXXXXXXXXXXXXX.   ooo o                 oo oo    XXXXXXXXXXXXXXX",
"XXXXXXXXXXXXXX   oo o o                 oo ooo  X.XXXXXXXXXXXXXX",
"XXXXXXXXX.XXXXX     o o                 ooooo   XXXXXXXXXXXXXX.X",
"XXXXXXXXXXXXXXX    oooo                 ooo oo XXXXXXXXXXXXXXXX.",
"XXXXXXXXXXXXXX    oooo                  oooo   XXXXXXXXXXXXXXXXX",
"XX.XXXXXXXXXXXXX o ooo                  oo  o  XXXXXXXXXXXXXXXXX",
"XXX.XXXXXX.XXXXXX   oo                  ooooo  XXXXXXXXXXXXXXXXX",
"XXXXXXXXXXXXXXXXX    o                  ooo o   XXX.XXXXXXXXXXXX",
"XX.XXXXXXXXXXXXX    oo                  ooo     XX.XXXXXXXXXXXXX",
"XXXXXXXXXXXXXXXXXX ooo                  o ooo XXXXXXXXXXXX.XXXXX",
"XX.XXXXXXXXXXXXX.X   oo                 o o   XXXXXXXXXXXXXXXXXX",
"XXXXXXXXXXX.XXXXXX    o                 o o   XXXXXXXXXXXXXXXXXX",
"XXXXXXXXXXXXXXXX    o oo               oo o  XXXXXXXXXXXXXXXXXXX",
"XXXXXXXXXXXXXXXXXXX   oo               oo    XXXXXXXXXXXXXXXX.XX",
"XXXXXXXX.XXXXXXXXXX o ooo             ooo   XXXXXXXXXXXXXXXXXXXX",
"XXXXXXXXXXXXXXXXXX    ooo            oooo  XXXXXXX.XXXXXXXXXXXXX",
"XXXXXXXXXXXXXXXXXXXX o ooo          oo  o  XXXXXXXXXXXXXXXXXXXXX",
"XX.XXXXXXXXXXXXXXXX       oooo     oo o    XXXXXXXXXXXXXXXXXXXXX",
"XXXXXXXXXX.XXXXXXXX      ooooooooooooo o   XXXXXXXXXXXXXXXXXXXXX",
"XXXXX.XXXX.XXXXXXXX.   oooo ooooooooooo   XXXXXXXXXXXXXXXXXXXXXX",
"XXXXXXXXXXXXXXXXXXXXX    o  o oo oo  o o XXXXXXXXXXXX..XXXXXXXXX",
"XXXXXXXXXXXXXXXXXXXXXX      o oo  o o      XXX.XXXXXXXXXXXXXXXXX",
"XXXXXXXXXXXXXXXXXXXXXX    o   o    oo   XXXXXXXXXXXXXXXXXXXXXXXX",
"XXXXXXXXXXXXX.XXXXXXXXXXX       oo o    XXXXXXXXXXXXXXXXXXXXXXXX",
"XXXXXXXXXXXXXXXXXXXXXXXXXX           X  XXXXXXXXXXXXXXXXXXXXXXXX"
};
