/* XPM */
static char *result[] = {
/* columns rows colors chars-per-pixel */
"64 64 7 1 ",
"  c black",
". c gray10",
"X c #313439",
"o c #6B2817",
"O c #424952",
"+ c #B2807D",
"@ c white",
/* pixels */
"XOOOOOOOOOOOOOOOOOOOOOOOOOOOOOOOOOOOOOOOOOOOOOOOOOOOOOOOOOOOOOOO",
"OOOOOOOOOOOOOOOOOOOOOOOOOOOOO    OOOOOOOOOOOOOOOOOOOOOOOOXOOOOOO",
"OOOOOOOOXOOOOOOOOOOOOOO      ... OOOOOOOOOOOXOOOOOOOOOOOOOOOOOOO",
"OOOOOOOOOOOOOOOOOOOO   .......... OOOOOOOOOOOOOOOOOOOOOOOOOOOXOO",
"OOOOOOOOOOOOOOOOOOOOO ........... OOOOOOOOOOOOOOOOOOOOOOOOOOOOOO",
"OOOOXOOOOOOOOOOOOOOOO ........... OOOOOOOOOOOOOOOOOOOOOOOOOOOOOO",
"OOOOOOOOOOOOOOOXOOOOO ........... OOOOOOOOOOOOOOOOOOOOXOOOOOOOOO",
"OOOOOOOOOOOOOOXOOOOOO .......     OOOOOOOOOOOOOOOOOOOOOOOOOOOOOO",
"OOOOOOOOOOOOOOOOOOOOO ..     +++ OOOOOOOOOOOXOOOOXOOOOOOOOOOOOOO",
"OOOOOOOOOXOOOOOOOOOOO   +++++++++ OOOOOOOOOOOOOOOOOOOOOOOOOOOOXO",
"OOOOOOOOOOOOOOOXOOOOOOO +++++++++  OOOOOOOOOOOOOOOOOOOOOOOOOOOOO",
"OOOOOOOOOOOOOOOOOOOOOOO ++++++++++ XOOOOOOOOOOOOOOOOOOOOOOOOOOOO",
"OOXOOOOOOOOOOOOOOOOOOO +++++++++++ OOOOOOOOOOOOOOOOOOOOOOOOOOOOO",
"OOOXOOOOOOXOOOOOOOOOOO +++++++++++ OOOOOOOOOOOOOOOOOOOOOOOOOOOOO",
"OOOOOOOOOOOOOOOOOOOOOO +++++++++++   OOXOOOOOOXOOOOXOOOOOOOOOOOO",
"OOXOOOOOOOOOOOOOOOOOO ++++++++++++++ OOOOOOOOOOOOOXOOOOOOOOOOOOO",
"OOOOOOOOOOOOOOOOOOOOOO +++++++++++++  OOOOOOOOOOOOOOOOOOOOXOOOOO",
"OOXOOOOOOOOOOOOOXOOOOO ++++++++++++++ OOOOOOOOOOOOOOOOOOOOOOOOOO",
"OOOOOOOOOOOXOOOOOOOOO  ++++++++++++++ OOOOOOOOOOOOOOOOOOOOOOOOOO",
"OOOOOOOOOOOOOOOOOOOOO +++++++++++++++ OOOOOOOOOOOOOOOOOOOOOOOOOO",
"OOOOOOOOOOOOOOOOOOOOO +++++++++++++++++ OOXOOOOOOOOOOOOOOOOOOXOO",
"OOOOOOOOXOOOOOOOOOOOO +++++++++++++++++ OOOOOOOOOOOOOOOOOOOOOOOO",
"OOOOOOOOOOOOOOOOOOOOO +++++++++++++++++ OOOOOOOOOOXOOOOOOOOOOOOO",
"OOOOOOOOOOOOOOOOOOOOO +++++++++++++++++ OOOOOOOOOOOOOOOOOOOOOOOO",
"OOXOOOOOOOOOOOOOOOOOO +++++++++++++++++ OOOOOOOOOOOOOOOOOOOOOOOO",
"OOOOOOOOOOXOOOOOOOOOX ++++++++++++++++++ OOOOOOOOOOOOOOOOOOOOOOO",
"OOOOOXOOOOXOOOOOOOOXO +++++++++++++++++++ OOOOOOOOOOOOOOOOOOOOOO",
"OOOOOOOOOOOOOOOOOOOOO  ++++++++++++++++++ OOOOOOOOOOOXXOOOOOOOOO",
"OOOOOOOOOOOOOOOOOOOOO +++++++++++++++     OOOOXOOOOOOOOOOOOOOOOO",
"OOOOOOOOOOOOOOOOOOOOO +++++++++++++  @@@@ OOOOOOOOOOOOOOOOOOOOOO",
"OOOOOOOOOOOOOXOOOOOOO ++++ ++++     @@@@@ OOOOOOOOOOOOOOOOOOOOOO",
"OOOOOOOOOOOOOOOOOOOOO          @@@@@@@@@ @ OOOOOOOOOOOOOOOOOOOOO",
"XOOOOOOOOOOOOOOOOOOOO @@@@@@@@@@   @ @@@ @ OOOOOOOOOOOOOOOOOOOOO",
"OOOOOOOOOOOOOOOOOOOOOO @@@   @  @@ @  @  @ OOOOOOOOOOOOOOXOOOOOO",
"OOOOOOOOXOOOOOOOOOOOOO @@ @@ @ @@@ @    @@ OXOOOOOOOOOOOOOOOOOOO",
"OOOOOOOOOOOOOOOOOOOOOO @@ @@@@ @@@ @@  @@@ OOOOOOOOOOOOOOOOOOXOO",
"OOOOOOOOOOOOOOOOOOOOOO @@    @ @@@ @@@ @@@  OOOOOOOOOOOOOOOOOOOO",
"OOOOXOOOOOOOOOOOOOOOOO @@ @@ @ @@@@ @@@ @@@ OOOOOOOOOOOOOOOOOOOO",
"OOOOOOOOOOOOOOOXOOOOOXO @@ @@ @     @@@@@@@ OOOOOOOOOOXOOOOOOOOO",
"OOOOOOOOOOOOOOXOOOOOOOO @@    @ @@@@@@@@@@@ OOOOOOOOOOOOOOOOOOOO",
"OOOOOOOOOOOOOOOOOOOOOOO @@@@@@@@@@@@@@   @@ XOOOOXOOOOOOOOOOOOOO",
"OOOOOOOOOXOOOOOOOOOOOOO @@@@@@@@      @@ @@ OOOOOOOOOOOOOOOOOOXO",
"OOOOOOOOOOOOOOOXOOOOOOO @@@     @@@@@@ @ @@  OOOOOOOOOOOOOOOOOOX",
"OOOOOOOOOOOOOOOOOOOOOOO @@  @@@@      @@@ @@ OOOOOOOOOOOOOOOOOOO",
"OOXOOOOOOOOOOOOOOOOOOOOO @@ @    @@@@@    @@ OOOOOOOOOOOOOOOOOOO",
"OOOXOOOOOOXOOOOOOOOOOOOO @@ @@@@@     @@@@@@ OOOOOOOOOOOOOOOOOOO",
"OOOOOOOOOOOOOOOOOOOOOOOO @@      @@@@@@@@@@@ OXOOOOXOOOOOOOOOOOO",
"OOXOOOOOOOOOOOOOOOOOOOOO @@@@@@@@@@@@@@  @@@ OOOOOXOOOOOOOOOOOOO",
"OOOOOOOOOOOOOOOOOOOOOOOO @@@   @@      @@@@@@ OOOOOOOOOOOOXOOOOO",
"OOXOOOOOOOOOOOOOXOOOOOOO @@@@   @@@@@@@ @@@@@ OOOOOOOOOOOOOOOOOO",
"OOOOOOOOOOOXOOOOOOOOOOOOO @@@   @@@@@@ @@@@@@ OOOOOOOOOOOOOOOOOO",
"OOOOOOOOOOOOOOOOOOOOOOXOO @@@  @@      @@     OOOOOOOOOOOOOOOOOO",
"OOOOOOOOOOOOOOOOOOOOOOOOO @@@@@@ @@@@@@  oooo OOOOOOOOOOOOOOOXOO",
"OOOOOOOOXOOOOOOOOOOOOOOOO @@@@@@@@@@@@@ oooooo OOOOOOOOOOOOOOOOO",
"OOOOOOOOOOOOOOOOOOOOOOOOO @@@@@@@@@@@@ oooo  o OOOXOOOOOOOOOOOOO",
"OOOOOOOOOOOOOOOOOOOOOOOOO @@@@@@@@@@@@       o OOOOOOOOOOOOOOOOO",
"OOXOOOOOOOOOOOOOOOOOOOOOOO @@@@@@@@@@@@@@ @@   OOOOOOOOOOOOOOOOO",
"OOOOOOOOOOXOOOOOOOOOXOOOOO @@@@@@@@@@@@@@@@@   OOOOOOOOOOOOOOOOO",
"OOOOOXOOOOXOOOOOOOOXOOOOOO @@@@@@@@@@@@@@@@@ OOOOOOOOOOOOOOOOOOO",
"OOOOOOOOOOOOOOOOOOOOOOOOOO @@@@@@@@@@@@@@    OOOOOOOOXXOOOOOOOOO",
"OOOOOOOOOOOOOOOOOOOOOOOOOO @@@@@@@@@@@@@   OOOXOOOOOOOOOOOOOOOOO",
"OOOOOOOOOOOOOOOOOOOOOOOOOOO    @@@      OOOOOOOOOOOOOOOOOOOOOOOO",
"OOOOOOOOOOOOOXOOOOOOOOOOOOOOOO    XXOOOOOOOOOOOOOOOOOOOOOOOOOOOO",
"OOOOOOOOOOOOOOOOOOOOOOOOOOOOOOOOOOOOOOOOOOOOOOOOOOOOOOOOOOOOOOOO"
};
