/* XPM */
static char *result[] = {
/* columns rows colors chars-per-pixel */
"64 64 7 1 ",
"  c black",
". c gray10",
"X c #313439",
"o c #6B2817",
"O c #424952",
"+ c #B2807D",
"@ c white",
/* pixels */
"XOOOOOOOOOOOOOOOOOOOOOOOOOOOOOOOOOOOOOOOOOOOOOOOOOOOOOOOOOOOOOOO",
"OOOOOOOOOOOOOOOOOOOOOOOOOOOOOO   OOOOOOOOOOOOOOOOOOOOOOOOXOOOOOO",
"OOOOOOOOXOOOOOOOOOOOOOOXOOOOOO ..      OOOOOXOOOOOOOOOOOOOOOOOOO",
"OOOOOOOOOOOOOOOOOOOOOOOOOOOOO .........    OOOOOOOOOOOOOOOOOOXOO",
"OOOOOOOOOOOOOOOOOOOOOOOOOOOOO ........... OOOOOOOOOOOOOOOOOOOOOO",
"OOOOXOOOOOOOOOOOOOOOOOOOOOOOO ........... OOOOOOOOOOOOOOOOOOOOOO",
"OOOOOOOOOOOOOOOXOOOOOXOOOOOOO ........... OOOOOOOOOOOOXOOOOOOOOO",
"OOOOOOOOOOOOOOXOOOOOOOOOOOOOO    ........ OOOOOOOOOOOOOOOOOOOOOO",
"OOOOOOOOOOOOOOOOOOOOOOOOOOOOOO ++     ... OOXOOOOXOOOOOOOOOOOOOO",
"OOOOOOOOOXOOOOOOOOOOOOOOOOOOO ++++++++    OOOOOOOOOOOOOOOOOOOOXO",
"OOOOOOOOOOOOOOOXOOOOOOOOOOOO ++++++++++ OOOOOOOOOOOOOOOOOOOOOOOO",
"OOOOOOOOOOOOOOOOOOOOOOOOOOOO ++++++++++ OOOOOOOOOOOOOOOOOOOOOOOO",
"OOXOOOOOOOOOOOOOOOOOOOOOOOOO ++++++++++  OOOOOOOOOOOOOOOOOOOOOOO",
"OOOXOOOOOOXOOOOOOOOOOOOOOOO ++++++++++++ OOOOOOOOOOOOOOOOOOOOOOO",
"OOOOOOOOOOOOOOOOOOOOOOOOOOX ++++++++++++ OOOOOXOOOOXOOOOOOOOOOOO",
"OOXOOOOOOOOOOOOOOOOOOOOOO  +++++++++++++ OOOOOOOOOXOOOOOOOOOOOOO",
"OOOOOOOOOOOOOOOOOOOOOOOOO  ++++++++++++  OOOOOOOOOOOOOOOOOXOOOOO",
"OOXOOOOOOOOOOOOOXOOOOOOOO ++++++++++++++ OOOOOOOOOOOOOOOOOOOOOOO",
"OOOOOOOOOOOXOOOOOOOOOOOO +++++++++++++++ OOOOOOOOOOOOOOOOOOOOOOO",
"OOOOOOOOOOOOOOOOOOOOOOXO +++++++++++++++  OOOOOOOOOOOOOOOOOOOOOO",
"OOOOOOOOOOOOOOOOOOOOOOO +++++++++++++++++ XOOOOOOOOOOOOOOOOOOXOO",
"OOOOOOOOXOOOOOOOOOOOOOO ++++++++++++++++ OOOOOOOOOOOOOOOOOOOOOOO",
"OOOOOOOOOOOOOOOOOOOOOOO ++++++++++++++++ OOOOOOOOOXOOOOOOOOOOOOO",
"OOOOOOOOOOOOOOOOOOOOOOO +++++++++++++++++ OOOOOOOOOOOOOOOOOOOOOO",
"OOXOOOOOOOOOOOOOOOOOOO  +++++++++++++++++ OOOOOOOOOOOOOOOOOOOOOO",
"OOOOOOOOOOXOOOOOOOOOXO ++++++++++++++++++ OOOOOOOOOOOOOOOOOOOOOO",
"OOOOOXOOOOXOOOOOOOOXO +++++++++++++++++++ OOOOOOOOOOOOOOOOOOOOOO",
"OOOOOOOOOOOOOOOOOOOOO ++++++++++++++++++ OOOOOOOOOOOOXXOOOOOOOOO",
"OOOOOOOOOOOOOOOOOOOOO    ++++++++++++++++ OOOOXOOOOOOOOOOOOOOOOO",
"OOOOOOOOOOOOOOOOOOOOO @@@  ++++++++++++++ OOOOOOOOOOOOOOOOOOOOOO",
"OOOOOOOOOOOOOXOOOOOOO @@@@     ++++ +++++ OOOOOOOOOOOOOOOOOOOOOO",
"OOOOOOOOOOOOOOOOOOOO @@  @@@@@@           OOOOOOOOOOOOOOOOOOOOOO",
"XOOOOOOOOOOOOOOOOOOO @@ @  @  @@@@@@@@@@@ OOOOOOOOOOOOOOOOOOOOOO",
"OOOOOOOOOOOOOOOOOOOO @@ @@ @ @   @ @@@@@ OOOOOOOOOOOOOOOOXOOOOOO",
"OOOOOOOOXOOOOOOOOOOO @@  @@@ @@@ @ @@@ @ OOOXOOOOOOOOOOOOOOOOOOO",
"OOOOOOOOOOOOOOOOOOOO @@@   @ @@@ @  @@ @ OOOOOOOOOOOOOOOOOOOOXOO",
"OOOOOOOOOOOOOOOOOOOO @@ @@ @ @@@ @@ @  @ OOOOOOOOOOOOOOOOOOOOOOO",
"OOOOXOOOOOOOOOOOOOO @@  @@  @@@@ @@@  @@ OOOOOOOOOOOOOOOOOOOOOOO",
"OOOOOOOOOOOOOOOXOOO @@@@  @   @ @@@  @@ OOOOOOOOOOOOOOXOOOOOOOOO",
"OOOOOOOOOOOOOOXOOOO @@@@@@@@@@  @@@ @@@ OOOOOOOOOOOOOOOOOOOOOOOO",
"OOOOOOOOOOOOOOOOOOO @@  @@@@@@@@@@@@@@@ OOOOXOOOOXOOOOOOOOOOOOOO",
"OOOOOOOOOXOOOOOOOOO @@ @      @@@@@@@@@ OOOOOOOOOOOOOOOOOOOOOOXO",
"OOOOOOOOOOOOOOOXOOO @@  @@@@@@     @@@@ OOOOOOOOOOOOOOOOOOOOOOOX",
"OOOOOOOOOOOOOOOOOO @@ @@      @@@@@  @@ OOOOOOOOOOOOOOOOOOOOOOOO",
"OOXOOOOOOOOOOOOOOO @@   @@@@@     @ @@ OOOOOOOOOOOOOOOOOOOOOOOOO",
"OOOXOOOOOOXOOOOOOO @@@@@     @@@@@@ @@ OOOOOOOOOOOOOOOOOOOOOOOOO",
"OOOOOOOOOOOOOOOOOO @@@ @@@@@@       @@ XOOOOOOXOOOOXOOOOOOOOOOOO",
"OOXOOOOOOOOOOOOOOO @@@   @@@@@@@@@@ @@ OOOOOOOOOOOXOOOOOOOOOOOOO",
"OOOOOOOOOOOOOOOOO  @@    @@  @@@@@@@@@ OOOOOOOOOOOOOOOOOOOXOOOOO",
"OOXOOOOOOOOOOOOOX @@@   @@@@@     @@@@ OOOOOOOOOOOOOOOOOOOOOOOOO",
"OOOOOOOOOOOXOOOOO @@@@@@@@@@@@@@@@@@@ OOOOOOOOOOOOOOOOOOOOOOOOOO",
"OOOOOOOOOOOOOOOOO @@@@@@     @  @@@@@ OOOOOOOOOOOOOOOOOOOOOOOOOO",
"OOOOOOOOOOOOOOOOO @@@@@@@@@@@  @@@@@@ OOOOXOOOOOOOOOOOOOOOOOOXOO",
"OOOOOOOOXOOOOOOO  @@@@@@@@@@@@@@@ @@@ OOOOOOOOOOOOOOOOOOOOOOOOOO",
"OOOOOOOOOOOOOOOO @@@@@@@@@@@@@@  o    XOOOOOOOOOOOXOOOOOOOOOOOOO",
"OOOOOOOOOOOOOOOO @@@@@@@@@@@@  oooooo OOOOOOOOOOOOOOOOOOOOOOOOOO",
"OOXOOOOOOOOOOOOO @@@@@@@@@@@ oooo oo OOOOOOOOOOOOOOOOOOOOOOOOOOO",
"OOOOOOOOOOXOOOOO @@@@@@@@@@@@      o OOOOOOOOOOOOOOOOOOOOOOOOOOO",
"OOOOOXOOOOXOOOOOO @@@@@@@@@@@@@ @@ o OOOOOOOOOOOOOOOOOOOOOOOOOOO",
"OOOOOOOOOOOOOOOOO   @@@@@@@@@@@@@@ o OOOOOOOOOOOOOOOOXXOOOOOOOOO",
"OOOOOOOOOOOOOOOOOO    @@@@@@@@@@@@   OOOOOOOOOXOOOOOOOOOOOOOOOOO",
"OOOOOOOOOOOOOOOOOOOOOO      @@      OOOOOOOOOOOOOOOOOOOOOOOOOOOO",
"OOOOOOOOOOOOOXOOOOOOOOOOOOOO   OOOXXOOOOOOOOOOOOOOOOOOOOOOOOOOOO",
"OOOOOOOOOOOOOOOOOOOOOOOOOOOOOOOOOOOOOOOOOOOOOOOOOOOOOOOOOOOOOOOO"
};
