/* XPM */
static char *result[] = {
/* columns rows colors chars-per-pixel */
"64 64 7 1 ",
"  c black",
". c gray10",
"X c #313439",
"o c #6B2817",
"O c #424952",
"+ c #B2807D",
"@ c white",
/* pixels */
"XOOOOOOOOOOOOOOOOOOOOOOOOOOOOOOOOOOOOOOOOOOOOOOOOOOOOOOOOOOOOOOO",
"OOOOOOOOOOOOOOOOOOOOOOOOO             OOOOOOOOOOOOOOOOOOOXOOOOOO",
"OOOOOOOOXOOOOOOOOOOOOOOXO ........... OOOOOOXOOOOOOOOOOOOOOOOOOO",
"OOOOOOOOOOOOOOOOOOOOOOOOO ........... OOOOOOOOOOOOOOOOOOOOOOOXOO",
"OOOOOOOOOOOOOOOOOOOOOOOOO ........... OOOOOOOOOOOOOOOOOOOOOOOOOO",
"OOOOXOOOOOOOOOOOOOOOOOOOO ........... OOOOOOOOOOOOOOOOOOOOOOOOOO",
"OOOOOOOOOOOOOOOXOOOOOXOOO ........... OOOOOOOOOOOOOOOOXOOOOOOOOO",
"OOOOOOOOOOOOOOXOOOOOOOOOO             OOOOOOOOOOOOOOOOOOOOOOOOOO",
"OOOOOOOOOOOOOOOOOOOOOOOOOO +++++++++ OOOOOOOXOOOOXOOOOOOOOOOOOOO",
"OOOOOOOOOXOOOOOOOOOOOOOOOO +++++++++ OOOOOOOOOOOOOOOOOOOOOOOOOXO",
"OOOOOOOOOOOOOOOXOOOOOOOOO ++++++++++  OOOOOOOOOOOOOOOOOOOOOOOOOO",
"OOOOOOOOOOOOOOOOOOOOOOOOO +++++++++++ OOOOOOOOOOOOOOOOOOOOOOOOOO",
"OOXOOOOOOOOOOOOOOOOOOOOOO +++++++++++ OOOOOOOOOOOOOOOOOOOOOOOOOO",
"OOOXOOOOOOXOOOOOOOOOOOOO ++++++++++++ OOOOOOOOOOOOOOOOOOOOOOOOOO",
"OOOOOOOOOOOOOOOOOOOOOOOO ++++++++++++  XOOOOOOXOOOOXOOOOOOOOOOOO",
"OOXOOOOOOOOOOOOOOOOOOOOO +++++++++++++ OOOOOOOOOOOXOOOOOOOOOOOOO",
"OOOOOOOOOOOOOOOOOOOOOOO  +++++++++++++ OOOOOOOOOOOOOOOOOOOXOOOOO",
"OOXOOOOOOOOOOOOOXOOOOOO ++++++++++++++  OOOOOOOOOOOOOOOOOOOOOOOO",
"OOOOOOOOOOOXOOOOOOOOOOO +++++++++++++++ OOOOOOOOOOOOOOOOOOOOOOOO",
"OOOOOOOOOOOOOOOOOOOOOO ++++++++++++++++ OOOOOOOOOOOOOOOOOOOOOOOO",
"OOOOOOOOOOOOOOOOOOOOOO ++++++++++++++++ OOXOOOOOOOOOOOOOOOOOOXOO",
"OOOOOOOOXOOOOOOOOOOOOO +++++++++++++++++ OOOOOOOOOOOOOOOOOOOOOOO",
"OOOOOOOOOOOOOOOOOOOOOO +++++++++++++++++ OOOOOOOOOXOOOOOOOOOOOOO",
"OOOOOOOOOOOOOOOOOOOOOO +++++++++++++++++ OOOOOOOOOOOOOOOOOOOOOOO",
"OOXOOOOOOOOOOOOOOOOOOO +++++++++++++++++ OOOOOOOOOOOOOOOOOOOOOOO",
"OOOOOOOOOOXOOOOOOOOOX  +++++++++++++++++ OOOOOOOOOOOOOOOOOOOOOOO",
"OOOOOXOOOOXOOOOOOOOXO +++++++++++++++++++ OOOOOOOOOOOOOOOOOOOOOO",
"OOOOOOOOOOOOOOOOOOOOO +++++++++++++++++++ OOOOOOOOOOOXXOOOOOOOOO",
"OOOOOOOOOOOOOOOOOOOOO +++++++++++++++++++ OOOOXOOOOOOOOOOOOOOOOO",
"OOOOOOOOOOOOOOOOOOOOO      ++++++++       OOOOOOOOOOOOOOOOOOOOOO",
"OOOOOOOOOOOOOXOOOOOOO @@@@          @@@@@ OOOOOOOOOOOOOOOOOOOOOO",
"OOOOOOOOOOOOOOOOOOOOO @@@@@@@@@@@@@@@@@@@ OOOOOOOOOOOOOOOOOOOOOO",
"XOOOOOOOOOOOOOOOOOOOO @@    @     @ @@@ @ OOOOOOOOOOOOOOOOOOOOOO",
"OOOOOOOOOOOOOOOOOOOOO @@ @@ @ @@@ @ @@@ @ OOOOOOOOOOOOOOOXOOOOOO",
"OOOOOOOOXOOOOOOOOOOOO @@ @@@@ @@@ @  @  @ OOXOOOOOOOOOOOOOOOOOOO",
"OOOOOOOOOOOOOOOOOOOOO @@    @ @@@ @@   @@ OOOOOOOOOOOOOOOOOOOXOO",
"OOOOOOOOOOOOOOOOOOOOO @@@@@ @ @@@ @@@ @@@ OOOOOOOOOOOOOOOOOOOOOO",
"OOOOXOOOOOOOOOOOOOOOO @@ @@ @ @@@ @@@ @@@ OOOOOOOOOOOOOOOOOOOOOO",
"OOOOOOOOOOOOOOOXOOOOO @@    @     @@@ @@@ OOOOOOOOOOOOXOOOOOOOOO",
"OOOOOOOOOOOOOOXOOOOOO @@@@@@@@@@@@@@@@@@@ OOOOOOOOOOOOOOOOOOOOOO",
"OOOOOOOOOOOOOOOOOOOOO @@@@@@@@@@@@@@@@@@@ OOXOOOOXOOOOOOOOOOOOOO",
"OOOOOOOOOXOOOOOOOOOOO @@               @@ OOOOOOOOOOOOOOOOOOOOXO",
"OOOOOOOOOOOOOOOXOOOOO @@ @@@@@@@@@@@@@ @@ OOOOOOOOOOOOOOOOOOOOOX",
"OOOOOOOOOOOOOOOOOOOOO @@ @           @ @@ OOOOOOOOOOOOOOOOOOOOOO",
"OOXOOOOOOOOOOOOOOOOOO @@ @@@@@@@@@@@@@ @@ OOOOOOOOOOOOOOOOOOOOOO",
"OOOXOOOOOOXOOOOOOOOOO @@               @@ OOOOOOOOOOOOOOOOOOOOOO",
"OOOOOOOOOOOOOOOOOOOOO @@@@@@@@@@@@@@@@@@@ OOOOXOOOOXOOOOOOOOOOOO",
"OOXOOOOOOOOOOOOOOOOOO @@@   @@@@@@@@@@@@@ OOOOOOOOXOOOOOOOOOOOOO",
"OOOOOOOOOOOOOOOOOOOOO @@@   @@        @@@ OOOOOOOOOOOOOOOOXOOOOO",
"OOXOOOOOOOOOOOOOXOOOO @@@   @@@@@@@@@@@@@ OOOOOOOOOOOOOOOOOOOOOO",
"OOOOOOOOOOOXOOOOOOOOO @@@  @@@@@@@  @@@@@ OOOOOOOOOOOOOOOOOOOOOO",
"OOOOOOOOOOOOOOOOOOOOO @@@@@@       @@@@@@ OOOOOOOOOOOOOOOOOOOOOO",
"OOOOOOOOOOOOOOOOOOOOO @@@@@@@@@@@@@@@     XOOOOOOOOOOOOOOOOOOXOO",
"OOOOOOOOXOOOOOOOOOOOO @@@@@@@@@@@@@  oooo OOOOOOOOOOOOOOOOOOOOOO",
"OOOOOOOOOOOOOOOOOOOOO @@@@@@@@@@@@  ooooo OOOOOOOOXOOOOOOOOOOOOO",
"OOOOOOOOOOOOOOOOOOOOO @@@@@@@@@@@ oooo  o OOOOOOOOOOOOOOOOOOOOOO",
"OOXOOOOOOOOOOOOOOOOOO @@@@@@@@@@@@      o OOOOOOOOOOOOOOOOOOOOOO",
"OOOOOOOOOOXOOOOOOOOOX @@@@@@@@@@@@@@ @@ o OOOOOOOOOOOOOOOOOOOOOO",
"OOOOOXOOOOXOOOOOOOOXO @@@@@@@@@@@@@@@@@   OOOOOOOOOOOOOOOOOOOOOO",
"OOOOOOOOOOOOOOOOOOOOO  @@@@@@@@@@@@@@@@   OOOOOOOOOOOXXOOOOOOOOO",
"OOOOOOOOOOOOOOOOOOOOOO   @@@@@@@@@@@    OOOOOOXOOOOOOOOOOOOOOOOO",
"OOOOOOOOOOOOOOOOOOOOOOOO             OOOOOOOOOOOOOOOOOOOOOOOOOOO",
"OOOOOOOOOOOOOXOOOOOOOOOOOOOOOOOOOOXXOOOOOOOOOOOOOOOOOOOOOOOOOOOO",
"OOOOOOOOOOOOOOOOOOOOOOOOOOOOOOOOOOOOOOOOOOOOOOOOOOOOOOOOOOOOOOOO"
};
